<?xml version="1.0" encoding="utf-8"?>
<!-- Generator: Adobe Illustrator 24.1.2, SVG Export Plug-In . SVG Version: 6.00 Build 0)  -->
<svg version="1.1" id="Layer_1" xmlns="http://www.w3.org/2000/svg" xmlns:xlink="http://www.w3.org/1999/xlink" x="0px" y="0px"
	 viewBox="0 0 349.72 374.38" style="enable-background:new 0 0 349.72 374.38;" xml:space="preserve">
<style type="text/css">
	.st0{fill:#231F20;}
	.st1{fill:#F9ED32;}
</style>
<g>
	<g>
		<path class="st0" d="M315.92,92.62c-14.95,1.88-23.52,5.63-32.56,11.4c-19.62,12.51-31.57,31.16-40.98,51.73
			c-0.55,1.2-0.99,2.22,0.26,3.41c14.22,13.58,30.64,28.45,44.61,42.28c14.59,14.45,28.33,29.79,37.24,48.58
			c11.78,24.84,12.86,50.55,3.3,76.21c-9.17,24.6-28.64,37.78-53.22,43.96c-31.7,7.97-61.77,3.64-89.89-13.27
			c-6.71-4.03-13.38-8.12-20.05-12.22c-1.15-0.71-2.16-1.63-3.24-2.45c0.16-0.28,0.35-0.55,0.54-0.83
			c6.41,3.69,12.77,7.47,19.24,11.06c16.2,9,33.61,11.63,51.71,8.71c23.99-3.87,36.94-22.87,33.74-48.78
			c-5.2-33.15-46.87-76.41-47.64-77.18c-1.18,3.45-2.2,7.12-3.54,10.24c-4.05,9.47-7.63,19.22-12.56,28.23
			c-11.52,21.06-29.01,35.1-52.5,40.72c-24.18,5.79-48.49,6.29-72.52-1.06c-40.35-12.35-65.21-48.72-61.72-90.76
			c2.38-28.65,17.09-50.71,38.74-68.54c18.73-15.42,40.18-26.02,62.89-34.22c2-0.72,3.95-1.57,6.36-2.54
			c-2.67-4.28-5.2-8.15-7.53-12.13c-9.59-16.33-13.93-33.97-11.16-52.75c3.52-23.85,17.57-39.5,40.15-47.18
			c20.4-6.94,41.25-7.39,61.94-1.35c14.47,4.23,25.56,12.7,30.3,27.85c5.78,18.45,0.6,36.57-15.51,47.21
			c-11.44,7.55-24.25,13.02-36.49,19.36c-2.17,1.12-7.34,3.12-7.34,3.12l61.07,54.86c0,0,1.77-3.25,2.54-4.8
			c9.55-19.18,21.1-36.8,39.6-48.59c11.8-7.52,26.09-11.89,39.88-12.25 M77.08,207.15c-0.38,7.84,2.15,22.21,7.41,36.02
			c11.99,31.46,38.63,55.3,73.28,53.76c17.72-0.79,31.72-7.79,41.82-22.43c7.75-11.23,12.31-23.89,16.53-36.73
			c1.16-3.54,0.7-6.08-1.72-9.06c-18.73-22.98-37.25-46.13-55.85-69.22c-9.93-12.32-21.12-26.01-31.21-38.19
			c-1.19-1.44-1.54-2.3-2.81-1.78c-13.61,5.63-26.86,14-34.84,26.91C79.47,162.94,77.59,181.35,77.08,207.15z M188.95,5.1
			c-15.78-9.26-34.7-0.71-39.31,18.51c-7.04,29.37,3.41,55.95,25.9,75.87c1.29,1.14,2.61-0.19,4.14-1.02
			C216.73,78.32,213.7,22.72,188.95,5.1z"/>
	</g>
</g>
<circle class="st1" cx="322.89" cy="111.35" r="20.75"/>
</svg>
