<?xml version="1.0" encoding="utf-8"?>
<!-- Generator: Adobe Illustrator 24.1.2, SVG Export Plug-In . SVG Version: 6.00 Build 0)  -->
<svg version="1.1" id="Layer_1" xmlns="http://www.w3.org/2000/svg" xmlns:xlink="http://www.w3.org/1999/xlink" x="0px" y="0px"
	 viewBox="0 0 115 200" style="enable-background:new 0 0 115 200;" xml:space="preserve">
<style type="text/css">
	.st0{fill:#F9ED32;}
</style>
<g id="Layer_2_1_">
	<g id="Layer_1-2">
		<path class="st0" d="M112.62,156.14c0.04,6.01-1.11,11.97-3.41,17.53c-2.2,5.32-5.47,10.12-9.62,14.11
			c-4.08,3.93-8.89,7.02-14.16,9.08c-5.37,2.1-11.09,3.17-16.85,3.14c-6.97,0-12.97-1.35-18-4.05c-4.82-2.55-9.05-6.09-12.4-10.4
			c-4.67,4.5-9.02,9.33-13,14.45H17.6V91.79c0-3.72-0.44-6.43-1.31-8.16c-0.88-1.72-2.5-2.94-4.4-3.32
			c-3.14-0.61-6.32-0.92-9.52-0.93v-8.79L42.81,62v63.18c3.47-3.24,7.36-5.99,11.57-8.18c4.4-2.31,10.15-3.47,17.24-3.47
			c6.12-0.11,12.18,1.14,17.76,3.65c4.97,2.26,9.37,5.59,12.9,9.76c3.41,4.04,6.05,8.67,7.77,13.67
			C111.76,145.61,112.63,150.86,112.62,156.14z M85.62,155.36c0.16-7.39-1.2-14.74-4-21.58c-2.7-6.25-8.03-9.37-16-9.38
			c-2.9,0.01-5.77,0.59-8.44,1.71c-2.82,1.15-5.45,2.71-7.81,4.64c-2.45,2.02-4.66,4.32-6.59,6.84v39.74
			c3.93,5.11,7.82,8.35,11.69,9.72c3.29,1.28,6.77,1.99,10.3,2.1c5.47,0,9.77-1.81,12.89-5.42c3.17-3.7,5.34-8.16,6.3-12.94
			c1.08-5.07,1.62-10.24,1.61-15.43H85.62z"/>
	</g>
</g>
</svg>
