<?xml version="1.0" encoding="utf-8"?>
<!-- Generator: Adobe Illustrator 24.1.2, SVG Export Plug-In . SVG Version: 6.00 Build 0)  -->
<svg version="1.1" id="Layer_1" xmlns="http://www.w3.org/2000/svg" xmlns:xlink="http://www.w3.org/1999/xlink" x="0px" y="0px"
	 viewBox="0 0 115 200" style="enable-background:new 0 0 115 200;" xml:space="preserve">
<style type="text/css">
	.st0{fill:#F9ED32;}
</style>
<g id="Layer_2_1_">
	<g id="Layer_1-2">
		<path class="st0" d="M83.99,200h-53v-9h2.83c3.78,0,6.53-0.52,8.25-1.56c1.65-0.93,2.81-2.54,3.18-4.4
			c0.46-2.74,0.65-5.52,0.58-8.3v-24c0.11-2.89-0.13-5.77-0.73-8.6c-0.59-1.79-2.01-3.17-3.81-3.71c-2.05-0.77-5.48-1.18-10.3-1.25
			v-9l40-8.4v55c0,5.47,0.68,9.21,2.05,11.23s5.01,3.02,10.94,3L83.99,200z"/>
	</g>
</g>
</svg>
