<?xml version="1.0" encoding="utf-8"?>
<!-- Generator: Adobe Illustrator 24.1.2, SVG Export Plug-In . SVG Version: 6.00 Build 0)  -->
<svg version="1.1" id="Layer_1" xmlns="http://www.w3.org/2000/svg" xmlns:xlink="http://www.w3.org/1999/xlink" x="0px" y="0px"
	 viewBox="0 0 115 200" style="enable-background:new 0 0 115 200;" xml:space="preserve">
<style type="text/css">
	.st0{fill:#F9ED32;}
</style>
<g id="Layer_2_1_">
	<g id="Layer_1-2">
		<path class="st0" d="M100.81,132.2c0.17,3.34-1.09,6.59-3.47,8.94c-2.18,2.13-5.11,3.3-8.15,3.27c-3.71,0-6.96-1.82-9.77-5.47
			c-0.97-1.27-2.05-2.45-3.23-3.52c-1.04-0.77-2.32-1.15-3.61-1.07c-5.08,0-9.04,2.75-11.87,8.25c-2.78,5.3-4.23,11.19-4.23,17.17
			v17c0,5.47,0.7,9.22,2.09,11.23s5.09,3.01,11.09,3h5.17v9H14.19v-9h5.08c5.47,0,8.83-1.04,10.06-3.13
			c1.23-2.09,1.85-5.79,1.86-11.1v-28.55c0-4.37-0.44-7.49-1.32-9.38c-0.91-1.92-2.66-3.3-4.73-3.76c-3.6-0.75-7.28-1.06-10.95-0.93
			v-9l38.09-8.38c0.97,3.33,1.88,10.4,2.73,21.19c1.84-3.86,4.26-7.42,7.18-10.55c2.88-3.11,6.26-5.72,10-7.71
			c3.45-1.89,7.31-2.89,11.24-2.93c5.33,0,9.56,1.5,12.69,4.49C99.17,124.07,100.88,128.05,100.81,132.2z"/>
	</g>
</g>
</svg>
